# xmcd CD database file
#
# Track frame offsets:
#	182
#	12512
#	23510
#	36657
#	52012
#	62615
#	86370
#	101055
#	123182
#	133260
#	144095
#	154275
#	168995
#	182695
#	195350
#
# Disc length: 2760 seconds
#
# Revision: 0
# Processed by: cddbd v1.4PL0 Copyright (c) Steve Scherf et al.
# Submitted via: CDex 1.50
#
DISCID=c50ac60f
DTITLE=Taxmeni - Vrata Vyskocil, Yvonne Prenosilova
DYEAR=1993
DGENRE=Country
TTITLE0=Zustavam
TTITLE1=Klaunu a blaznu sef
TTITLE2=Ton kolejnic
TTITLE3=Jak ty tejdny line jdou
TTITLE4=Pyramidy
TTITLE5=Tisic dnu
TTITLE6=Jackson
TTITLE7=Babi leto
TTITLE8=Koule na noze
TTITLE9=On je cvok
TTITLE10=Good bye
TTITLE11=Nekoukej na me
TTITLE12=Dama pri tele
TTITLE13=Nebyla to fama
TTITLE14=Haleluja
EXTD=YEAR: 1993
EXTT0=
EXTT1=
EXTT2=
EXTT3=
EXTT4=
EXTT5=
EXTT6=
EXTT7=
EXTT8=
EXTT9=
EXTT10=
EXTT11=
EXTT12=
EXTT13=
EXTT14=
PLAYORDER=
